<?xml version="1.0" encoding="UTF-8" standalone="no"?>
<svg
   xmlns:dc="http://purl.org/dc/elements/1.1/"
   xmlns:cc="http://creativecommons.org/ns#"
   xmlns:rdf="http://www.w3.org/1999/02/22-rdf-syntax-ns#"
   xmlns:svg="http://www.w3.org/2000/svg"
   xmlns="http://www.w3.org/2000/svg"
   xmlns:sodipodi="http://sodipodi.sourceforge.net/DTD/sodipodi-0.dtd"
   xmlns:inkscape="http://www.inkscape.org/namespaces/inkscape"
   width="2in"
   height="3in"
   viewBox="0 0 50.800001 76.2"
   version="1.1"
   id="svg8"
   sodipodi:docname="body.svg"
   inkscape:version="1.0.2 (e86c870879, 2021-01-15)">
  <defs
     id="defs2">
    <filter
       inkscape:collect="always"
       style="color-interpolation-filters:sRGB"
       id="filter960"
       x="-7.039921e-05"
       width="1.0001408"
       y="-3.1160811e-05"
       height="1.0000623">
      <feGaussianBlur
         inkscape:collect="always"
         stdDeviation="0.00027837144"
         id="feGaussianBlur962" />
    </filter>
  </defs>
  <sodipodi:namedview
     id="base"
     pagecolor="#ffffff"
     bordercolor="#666666"
     borderopacity="1.0"
     inkscape:pageopacity="0.0"
     inkscape:pageshadow="2"
     inkscape:zoom="2.7318656"
     inkscape:cx="97.889655"
     inkscape:cy="148.12631"
     inkscape:document-units="mm"
     inkscape:current-layer="layer2"
     inkscape:document-rotation="0"
     showgrid="false"
     units="in"
     inkscape:window-width="1920"
     inkscape:window-height="1026"
     inkscape:window-x="0"
     inkscape:window-y="33"
     inkscape:window-maximized="1" />
  <metadata
     id="metadata5">
    <rdf:RDF>
      <cc:Work
         rdf:about="">
        <dc:format>image/svg+xml</dc:format>
        <dc:type
           rdf:resource="http://purl.org/dc/dcmitype/StillImage" />
        <dc:title></dc:title>
      </cc:Work>
    </rdf:RDF>
  </metadata>
  <g
     inkscape:label="Layer 1"
     inkscape:groupmode="layer"
     id="layer1"
     style="display:inline">
    <path
       id="lungs"
       style="fill:#de8787;fill-rule:evenodd;stroke:#000000;stroke-width:0.264583;stroke-opacity:1"
       d="m 16.008048,15.327889 v 13.79089 h -0.668176 v -2.132688 l -9.1657326,1.92797 -0.934059,20.954028 9.1758086,-4.929164 0.923983,-13.350012 h 3.377056 l 0.685472,13.395357 9.618125,5.643072 0.05843,-21.691493 -10.362026,-1.937872 v 2.120802 h -0.687298 v -13.79089 z"
       sodipodi:nodetypes="ccccccccccccccccc" />
  </g>
  <g
     inkscape:groupmode="layer"
     id="layer2"
     inkscape:label="Layer 2"
     style="display:inline">
    <g
       id="heart"
       transform="matrix(0.60932831,0,0,0.70277651,30.608077,-4.2845107)"
       inkscape:label="#heart">
      <path
         id="path938"
         style="display:inline;fill:#ff2a2a;stroke:#000000;stroke-width:0.999999px;stroke-linecap:butt;stroke-linejoin:miter;stroke-opacity:1"
         d="m -63.615234,192.0625 -11.892578,0.22852 -7.8125,10.90039 5.294921,11.53125 5.309045,32.08685 -1.138035,37.73935 3.59902,-0.0647 0.749047,-19.51697 1.652798,9.4645 23.533204,-56.04687 -15.779297,-17.47852 z m -9.657813,5.22541 6.838275,0.19614 2.045337,6.26744 -12.263374,2.31746 -1.520961,-2.80994 z"
         sodipodi:nodetypes="cccccccccccccccccc"
         transform="scale(0.26458333)" />
      <path
         style="opacity:1;fill:#0066ff;stroke:#000000;stroke-width:0.265;stroke-linecap:butt;stroke-linejoin:miter;stroke-miterlimit:4;stroke-dasharray:none;stroke-opacity:1;filter:url(#filter960)"
         d="m -17.952909,72.61005 -2.691294,-15.798119 2.192432,-2.271398 4.531921,-0.162965 0.05703,-1.223499 -4.860825,0.105331 -4.037631,3.368087 -0.0031,-5.457404 -1.154424,0.02432 -0.07955,5.474352 -3.444636,4.686278 4.079365,5.345803 -0.120059,8.490917 1.156518,0.141971 0.180182,-7.600973 z"
         id="path936"
         sodipodi:nodetypes="cccccccccccccccc" />
    </g>
    <g
       id="brain"
       transform="matrix(0.79867081,0,0,0.78055773,-2.9880135,-0.31061508)">
      <ellipse
         style="display:inline;fill:#e3dbdb;fill-opacity:1;stroke:#000000;stroke-width:0.228249;stroke-linecap:square;stroke-miterlimit:4;stroke-dasharray:none;stroke-opacity:1"
         id="path997"
         cx="30.20789"
         cy="13.411743"
         rx="3.6334376"
         ry="2.8254218" />
      <path
         id="path977"
         style="display:inline;fill:#e3dbdb;fill-opacity:1;stroke:#000000;stroke-width:0.339934;stroke-linecap:square;stroke-miterlimit:4;stroke-dasharray:none;stroke-opacity:1"
         d="M 24.44151,1.3671028 A 10.174414,5.826508 0 0 0 14.266938,7.1936204 10.174414,5.826508 0 0 0 18.363845,11.866204 8.0671243,3.6069973 0 0 0 26.317881,14.870672 8.0671243,3.6069973 0 0 0 34.38509,11.263657 8.0671243,3.6069973 0 0 0 33.609427,9.7205984 10.174414,5.826508 0 0 0 34.615566,7.1936204 10.174414,5.826508 0 0 0 24.44151,1.3671028 Z" />
      <path
         style="display:inline;fill:#e3dbdb;fill-opacity:1;stroke:#000000;stroke-width:0.265;stroke-linecap:square;stroke-miterlimit:4;stroke-dasharray:none;stroke-opacity:1"
         id="path1012-5"
         sodipodi:type="arc"
         sodipodi:cx="20.509121"
         sodipodi:cy="5.945775"
         sodipodi:rx="2.7142336"
         sodipodi:ry="2.0838773"
         sodipodi:start="2.437068"
         sodipodi:end="4.9065241"
         sodipodi:arc-type="arc"
         sodipodi:open="true"
         d="M 18.441093,7.2954435 A 2.7142336,2.0838773 0 0 1 18.16754,4.8919399 2.7142336,2.0838773 0 0 1 21.032745,3.9010436" />
      <path
         style="display:inline;fill:#e3dbdb;fill-opacity:1;stroke:#000000;stroke-width:0.265;stroke-linecap:square;stroke-miterlimit:4;stroke-dasharray:none;stroke-opacity:1"
         id="path1012-3"
         sodipodi:type="arc"
         sodipodi:cx="22.870743"
         sodipodi:cy="5.7780657"
         sodipodi:rx="2.7142336"
         sodipodi:ry="2.0838773"
         sodipodi:start="2.437068"
         sodipodi:end="4.9065241"
         sodipodi:arc-type="arc"
         sodipodi:open="true"
         d="M 20.802715,7.1277341 A 2.7142336,2.0838773 0 0 1 20.529162,4.7242305 2.7142336,2.0838773 0 0 1 23.394367,3.7333342" />
      <path
         style="display:inline;fill:#e3dbdb;fill-opacity:1;stroke:#000000;stroke-width:0.265;stroke-linecap:square;stroke-miterlimit:4;stroke-dasharray:none;stroke-opacity:1"
         id="path1012-56"
         sodipodi:type="arc"
         sodipodi:cx="25.005047"
         sodipodi:cy="5.7618895"
         sodipodi:rx="2.7142336"
         sodipodi:ry="2.0838773"
         sodipodi:start="2.437068"
         sodipodi:end="4.9065241"
         sodipodi:arc-type="arc"
         sodipodi:open="true"
         d="M 22.937019,7.1115579 A 2.7142336,2.0838773 0 0 1 22.663466,4.7080543 2.7142336,2.0838773 0 0 1 25.528671,3.717158" />
      <path
         style="display:inline;fill:#e3dbdb;fill-opacity:1;stroke:#000000;stroke-width:0.265;stroke-linecap:square;stroke-miterlimit:4;stroke-dasharray:none;stroke-opacity:1"
         id="path1012-2"
         sodipodi:type="arc"
         sodipodi:cx="27.090725"
         sodipodi:cy="6.0688992"
         sodipodi:rx="2.7142336"
         sodipodi:ry="2.0838773"
         sodipodi:start="2.437068"
         sodipodi:end="4.9065241"
         sodipodi:arc-type="arc"
         sodipodi:open="true"
         d="M 25.022697,7.4185676 A 2.7142336,2.0838773 0 0 1 24.749144,5.015064 2.7142336,2.0838773 0 0 1 27.614349,4.0241677" />
      <path
         style="display:inline;fill:#e3dbdb;fill-opacity:1;stroke:#000000;stroke-width:0.265;stroke-linecap:square;stroke-miterlimit:4;stroke-dasharray:none;stroke-opacity:1"
         id="path1012-9"
         sodipodi:type="arc"
         sodipodi:cx="29.576269"
         sodipodi:cy="6.1268663"
         sodipodi:rx="2.7142336"
         sodipodi:ry="2.0838773"
         sodipodi:start="2.437068"
         sodipodi:end="4.9065241"
         sodipodi:arc-type="arc"
         sodipodi:open="true"
         d="M 27.508242,7.4765348 A 2.7142336,2.0838773 0 0 1 27.234688,5.0730312 2.7142336,2.0838773 0 0 1 30.099894,4.0821349" />
      <path
         style="display:inline;fill:#e3dbdb;fill-opacity:1;stroke:#000000;stroke-width:0.265;stroke-linecap:square;stroke-miterlimit:4;stroke-dasharray:none;stroke-opacity:1"
         id="path1012-1"
         sodipodi:type="arc"
         sodipodi:cx="19.380846"
         sodipodi:cy="7.593976"
         sodipodi:rx="2.7142336"
         sodipodi:ry="2.0838773"
         sodipodi:start="2.437068"
         sodipodi:end="4.9065241"
         sodipodi:arc-type="arc"
         sodipodi:open="true"
         d="M 17.312818,8.9436444 A 2.7142336,2.0838773 0 0 1 17.039265,6.5401409 2.7142336,2.0838773 0 0 1 19.90447,5.5492446" />
      <path
         style="display:inline;fill:#e3dbdb;fill-opacity:1;stroke:#000000;stroke-width:0.265;stroke-linecap:square;stroke-miterlimit:4;stroke-dasharray:none;stroke-opacity:1"
         id="path1012-27"
         sodipodi:type="arc"
         sodipodi:cx="21.69537"
         sodipodi:cy="7.1078525"
         sodipodi:rx="2.7142336"
         sodipodi:ry="2.0838773"
         sodipodi:start="2.437068"
         sodipodi:end="4.9065241"
         sodipodi:arc-type="arc"
         sodipodi:open="true"
         d="M 19.627342,8.4575209 A 2.7142336,2.0838773 0 0 1 19.353789,6.0540173 2.7142336,2.0838773 0 0 1 22.218994,5.063121" />
      <path
         style="display:inline;fill:#e3dbdb;fill-opacity:1;stroke:#000000;stroke-width:0.265;stroke-linecap:square;stroke-miterlimit:4;stroke-dasharray:none;stroke-opacity:1"
         id="path1012-0"
         sodipodi:type="arc"
         sodipodi:cx="23.427044"
         sodipodi:cy="7.1868649"
         sodipodi:rx="2.7142336"
         sodipodi:ry="2.0838773"
         sodipodi:start="2.437068"
         sodipodi:end="4.9065241"
         sodipodi:arc-type="arc"
         sodipodi:open="true"
         d="M 21.359016,8.5365333 A 2.7142336,2.0838773 0 0 1 21.085463,6.1330297 2.7142336,2.0838773 0 0 1 23.950668,5.1421334" />
      <path
         style="display:inline;fill:#e3dbdb;fill-opacity:1;stroke:#000000;stroke-width:0.265;stroke-linecap:square;stroke-miterlimit:4;stroke-dasharray:none;stroke-opacity:1"
         id="path1012-93"
         sodipodi:type="arc"
         sodipodi:cx="25.658384"
         sodipodi:cy="7.1271186"
         sodipodi:rx="2.7142336"
         sodipodi:ry="2.0838773"
         sodipodi:start="2.437068"
         sodipodi:end="4.9065241"
         sodipodi:arc-type="arc"
         sodipodi:open="true"
         d="M 23.590357,8.476787 A 2.7142336,2.0838773 0 0 1 23.316803,6.0732834 2.7142336,2.0838773 0 0 1 26.182009,5.0823871" />
      <path
         style="display:inline;fill:#e3dbdb;fill-opacity:1;stroke:#000000;stroke-width:0.265;stroke-linecap:square;stroke-miterlimit:4;stroke-dasharray:none;stroke-opacity:1"
         id="path1012-6"
         sodipodi:type="arc"
         sodipodi:cx="27.679312"
         sodipodi:cy="7.3641405"
         sodipodi:rx="2.7142336"
         sodipodi:ry="2.0838773"
         sodipodi:start="2.437068"
         sodipodi:end="4.9065241"
         sodipodi:arc-type="arc"
         sodipodi:open="true"
         d="M 25.611284,8.7138089 A 2.7142336,2.0838773 0 0 1 25.337731,6.3103054 2.7142336,2.0838773 0 0 1 28.202936,5.3194091" />
    </g>
    <g
       id="liver"
       transform="translate(-7.5805569,-2.416686)">
      <path
         id="rect1131"
         style="display:inline;fill:#c83737;fill-rule:evenodd;stroke:#000000;stroke-width:0.264583;stroke-opacity:1"
         d="m 36.601082,53.044028 c 0,0 0.0938,0.0082 -0.04727,1.088164 -0.09537,0.730093 -5.470565,1.761666 -8.363761,4.467352 L 12.74766,65.305277 c -2.503066,-8.468344 -1.159482,-11.412089 3.189583,-12.212926 4.349065,-0.800836 20.663839,-0.04832 20.663839,-0.04832 z"
         sodipodi:nodetypes="csccccc" />
      <path
         id="rect1134"
         style="display:inline;fill:#ffd5d5;fill-rule:evenodd;stroke:#000000;stroke-width:0.264583;stroke-opacity:1"
         d="m 24.894091,52.715653 1.124245,0.04026 -0.07795,6.83264 -1.236345,0.50664 z"
         sodipodi:nodetypes="ccccc" />
    </g>
    <g
       id="kidneys"
       transform="translate(-7.1886469,5.379664)">
      <g
         id="g1183"
         transform="matrix(-1,0,0,1,57.656519,-8.0830626)">
        <rect
           style="display:inline;fill:#ff0000;fill-rule:evenodd;stroke:#000000;stroke-width:0.264583;stroke-opacity:1"
           id="rect1164"
           width="3.3757589"
           height="0.80856866"
           x="24.179197"
           y="69.240883" />
        <rect
           style="display:inline;fill:#0000ff;fill-rule:evenodd;stroke:#000000;stroke-width:0.172871;stroke-opacity:1"
           id="rect1166"
           width="3.354496"
           height="0.65428168"
           x="24.20046"
           y="70.717072" />
        <path
           style="display:inline;fill:#c8b7b7;stroke:#000000;stroke-width:0.264583px;stroke-linecap:butt;stroke-linejoin:miter;stroke-opacity:1"
           d="m 23.892855,71.774695 4.56596,0.129357 0.758444,3.459655 -0.670991,0.03264 -0.673487,-2.554979 -3.928188,0.62148 z"
           id="path1173"
           sodipodi:nodetypes="ccccccc" />
        <path
           id="path1152"
           style="display:inline;opacity:1;fill:#782121;fill-opacity:1;stroke:#000000;stroke-width:0.264999;stroke-linecap:square;stroke-miterlimit:4;stroke-dasharray:none;stroke-opacity:1"
           d="m 25.133429,70.567132 c -0.01282,3.425264 1.870424,0.06307 2.026698,4.509719 0.156273,4.446647 -6.827117,0.353463 -6.827117,-4.322373 0,-4.675835 5.794216,-8.580941 6.091247,-5.112232 0.297031,3.468709 -1.278006,1.499623 -1.290828,4.924886 z"
           sodipodi:nodetypes="zzszz" />
      </g>
      <g
         id="g1193"
         transform="translate(-7.5622881,-7.8227286)">
        <rect
           style="display:inline;fill:#ff0000;fill-rule:evenodd;stroke:#000000;stroke-width:0.264583;stroke-opacity:1"
           id="rect1185"
           width="3.3757589"
           height="0.80856866"
           x="24.179197"
           y="69.240883" />
        <rect
           style="display:inline;fill:#0000ff;fill-rule:evenodd;stroke:#000000;stroke-width:0.172871;stroke-opacity:1"
           id="rect1187"
           width="3.354496"
           height="0.65428168"
           x="24.20046"
           y="70.717072" />
        <path
           style="display:inline;fill:#c8b7b7;stroke:#000000;stroke-width:0.264583px;stroke-linecap:butt;stroke-linejoin:miter;stroke-opacity:1"
           d="m 23.892855,71.774695 4.56596,0.129357 0.758444,3.459655 -0.670991,0.03264 -0.673487,-2.554979 -3.928188,0.62148 z"
           id="path1189"
           sodipodi:nodetypes="ccccccc" />
        <path
           id="path1191"
           style="display:inline;opacity:1;fill:#782121;fill-opacity:1;stroke:#000000;stroke-width:0.264999;stroke-linecap:square;stroke-miterlimit:4;stroke-dasharray:none;stroke-opacity:1"
           d="m 25.133429,70.567132 c -0.01282,3.425264 1.870424,0.06307 2.026698,4.509719 0.156273,4.446647 -6.827117,0.353463 -6.827117,-4.322373 0,-4.675835 5.794216,-8.580941 6.091247,-5.112232 0.297031,3.468709 -1.278006,1.499623 -1.290828,4.924886 z"
           sodipodi:nodetypes="zzszz" />
      </g>
    </g>
    <g
       id="immune">
      <ellipse
         style="opacity:1;fill:#ff7f2a;fill-opacity:1;stroke:#000000;stroke-width:0.264999;stroke-linecap:square;stroke-miterlimit:4;stroke-dasharray:none;stroke-opacity:1"
         id="path1207"
         cx="42.634434"
         cy="32.291706"
         rx="5.1406403"
         ry="4.9921885" />
      <path
         style="fill:none;stroke:#000000;stroke-width:0.264583px;stroke-linecap:butt;stroke-linejoin:miter;stroke-opacity:1"
         d="m 42.738254,27.304685 0.04758,-1.323401 -0.782828,-0.829071 0.804452,0.875779 0.692002,-0.778471 -0.696328,0.74344 z"
         id="path1209" />
      <path
         style="fill:none;stroke:#000000;stroke-width:0.264583px;stroke-linecap:butt;stroke-linejoin:miter;stroke-opacity:1"
         d="m 45.752787,28.371191 1.141801,-1.280586 -0.0865,-1.61922 0.0692,1.580297 1.249929,-0.494329 -1.219653,0.482653 z"
         id="path1211" />
      <path
         style="fill:none;stroke:#000000;stroke-width:0.264583px;stroke-linecap:butt;stroke-linejoin:miter;stroke-opacity:1"
         d="m 41.782425,37.311933 -0.328702,1.767131 -1.310476,0.832964 1.301829,-0.829072 0.497375,1.07429 -0.553601,-0.996445 z"
         id="path1213" />
      <path
         style="fill:none;stroke:#000000;stroke-width:0.264583px;stroke-linecap:butt;stroke-linejoin:miter;stroke-opacity:1"
         d="m 46.730239,35.431925 1.366703,1.342864 0.06055,1.903362 -0.134075,-1.883902 1.492128,0.01167 -1.56133,0.01167 z"
         id="path1215" />
      <path
         style="fill:none;stroke:#000000;stroke-width:0.264583px;stroke-linecap:butt;stroke-linejoin:miter;stroke-opacity:1"
         d="m 37.479041,32.672244 -1.712706,0.02725 -1.089901,-1.28837 1.098553,1.253339 -0.458454,1.303941 0.458454,-1.229987 z"
         id="path1217" />
      <path
         style="fill:none;stroke:#000000;stroke-width:0.264583px;stroke-linecap:butt;stroke-linejoin:miter;stroke-opacity:1"
         d="m 47.902314,31.796466 0.272479,0.03114 0.791477,-0.140123 0.59685,-1.33508 -0.631449,1.385681 0.462774,1.202738 -0.497377,-1.202738 z"
         id="path1219" />
      <path
         style="fill:none;stroke:#000000;stroke-width:0.264583px;stroke-linecap:butt;stroke-linejoin:miter;stroke-opacity:1"
         d="m 39.057669,28.538561 -0.882303,-1.280583 -1.531054,-0.564393 1.617554,0.6111 0.285451,-1.284477 -0.298426,1.412927 z"
         id="path1221" />
      <path
         style="fill:none;stroke:#000000;stroke-width:0.264583px;stroke-linecap:butt;stroke-linejoin:miter;stroke-opacity:1"
         d="m 39.023067,35.910684 -1.06395,1.175493 -1.319131,-0.190725 1.371032,0.159586 -0.103802,0.949735 0.108125,-0.976982 z"
         id="path1223" />
      <path
         style="fill:none;stroke:#000000;stroke-width:0.264583px;stroke-linecap:butt;stroke-linejoin:miter;stroke-opacity:1"
         d="m 44.390407,36.887665 0.635778,1.374003 -0.272478,1.117108 0.220578,-1.241663 0.929875,0.6111 -0.903928,-0.544931 z"
         id="path1225" />
      <text
         xml:space="preserve"
         style="font-style:normal;font-variant:normal;font-weight:normal;font-stretch:normal;font-size:2.00328px;line-height:1.25;font-family:'TeX Gyre Bonum Math';-inkscape-font-specification:'TeX Gyre Bonum Math';letter-spacing:0px;word-spacing:0px;fill:#000000;fill-opacity:1;stroke:none;stroke-width:0.150246"
         x="37.376965"
         y="32.666683"
         id="text1229"
         transform="scale(1.029946,0.97092469)"><tspan
           sodipodi:role="line"
           id="tspan1227"
           x="37.376965"
           y="32.666683"
           style="stroke-width:0.150246">Immune</tspan><tspan
           sodipodi:role="line"
           x="37.376965"
           y="35.170784"
           style="stroke-width:0.150246"
           id="tspan1231">System</tspan></text>
    </g>
  </g>
</svg>
